# xmcd
#
# Track frame offsets:
#	150
#	11016
#	26986
#	45296
#	60113
#	76325
#	93490
#	108388
#	122783
#	139080
#	154976
#	168839
#	186381
#	200537
#	219119
#	236192
#	248385
#	275696
#
# Disc length: 3836 seconds
#
# Revision: 0
# Processed by: cddbd v1.5.2PL0 Copyright (c) Steve Scherf et al.
# Submitted via: audiograbber 1.83.01
#
DISCID=f00efa12
DTITLE=Various Artist - Gympie Music Muster 2014 [CD2)
DYEAR=2014
DGENRE=Country
TTITLE0=Jayne Denham - Renegade
TTITLE1=The Rechords - Big White Moon
TTITLE2=Harry Hookey - Audrey's Song
TTITLE3=Sara Storer - Come On Rain
TTITLE4=Dozzi Ft Drew McAlister - I Need You Tonight
TTITLE5=The Sunny Cowgirls - Green and Gold
TTITLE6=Adam Harvey - You Don't Know My Love
TTITLE7=Scott Collier - Honky Tonk City
TTITLE8=O'Shea - This Could Be Our Year
TTITLE9=McAlister Kemp - The Only Way I Know How
TTITLE10=Harmony James - Skinny Flat White
TTITLE11=Jared Porter - Under The Sun
TTITLE12=Stealing Lincoln - Shouldn't Have Tree
TTITLE13=Simply Rushed - Saturday Night
TTITLE14=The Viper Creek Band - My Hometown
TTITLE15=Doug Bruce - Clock Out At Five
TTITLE16=Paddy McHugh - Dan O'Halloran 
TTITLE17=The Pigs - The Colour Of Light Coming Down
EXTD=
EXTT0=
EXTT1=
EXTT2=
EXTT3=
EXTT4=
EXTT5=
EXTT6=
EXTT7=
EXTT8=
EXTT9=
EXTT10=
EXTT11=
EXTT12=
EXTT13=
EXTT14=
EXTT15=
EXTT16=
EXTT17=
PLAYORDER=
